<svg width="24" height="24" viewBox="0 0 24 24" fill="none" xmlns="http://www.w3.org/2000/svg">
<path fill-rule="evenodd" clip-rule="evenodd" d="M16.3197 18.219C16.0958 18.8753 15.8385 19.48 15.5539 20.0233C14.6095 21.8262 13.4831 22.7629 12.424 22.962V17.3675C13.7523 17.4175 15.0734 17.7014 16.3197 18.219ZM17.2302 18.6461C16.178 21.6617 14.43 23.7166 12.424 23.9751V23.9946C15.391 23.8902 18.084 22.709 20.1241 20.8297C19.2582 19.9249 18.2788 19.197 17.2302 18.6461ZM20.8311 20.1221C19.8479 19.0984 18.7309 18.2835 17.5347 17.6776C17.9777 16.1054 18.2424 14.323 18.2772 12.429H23.9892C23.8851 15.3926 22.7065 18.0828 20.8311 20.1221ZM16.6132 17.2581C15.2709 16.7133 13.8509 16.4162 12.424 16.3668V12.429H17.277C17.2434 14.1815 17.0045 15.8187 16.6132 17.2581ZM11.424 16.3728V12.429H6.71155C6.7452 14.1823 6.98432 15.8203 7.37588 17.2602C8.67389 16.7327 10.0445 16.4369 11.424 16.3728ZM7.66951 18.2211C7.89326 18.8766 8.15035 19.4806 8.43464 20.0233C9.33735 21.7467 10.4064 22.6785 11.424 22.9313V17.3739C10.1433 17.4388 8.8716 17.7212 7.66951 18.2211ZM6.75921 18.6487C7.78689 21.5922 9.47759 23.6198 11.424 23.954V23.9888C8.51412 23.8526 5.87519 22.6802 3.86784 20.8322C4.73293 19.9277 5.7115 19.1998 6.75921 18.6487ZM6.45453 17.6802C5.25919 18.2864 4.14305 19.1013 3.16065 20.1249C1.28376 18.0852 0.104179 15.3939 0 12.429H5.71137C5.7462 14.3241 6.01116 16.1074 6.45453 17.6802ZM6.71475 11.429H11.424V7.62849C10.0445 7.56459 8.67377 7.26899 7.37566 6.74171C6.9949 8.14219 6.75833 9.73003 6.71475 11.429ZM7.66923 5.78087C8.87144 6.28055 10.1432 6.5627 11.424 6.62732V1.06975C10.4064 1.32256 9.33735 2.25443 8.43464 3.97777C8.15024 4.52073 7.89305 5.12497 7.66923 5.78087ZM12.424 11.429V7.63425C13.8509 7.58463 15.2708 7.28729 16.613 6.74226C16.9937 8.14261 17.2302 9.73025 17.2738 11.429H12.424ZM12.424 6.63359C13.7522 6.58329 15.0732 6.29923 16.3195 5.78142C16.0956 5.1253 15.8384 4.52088 15.5539 3.97777C14.6095 2.17486 13.4831 1.2382 12.424 1.03907V6.63359ZM18.2741 11.429C18.2289 9.58797 17.9664 7.85537 17.5345 6.3226C18.7306 5.71641 19.8475 4.90131 20.8306 3.87728C22.6763 5.88406 23.8472 8.52127 23.9834 11.429H18.2741ZM17.2299 5.35409C18.2785 4.80292 19.2578 4.07481 20.1236 3.16976C18.0835 1.29076 15.3907 0.109687 12.424 0.00537109V0.0260138C14.4298 0.284487 16.1776 2.339 17.2299 5.35409ZM11.424 0.0471363C9.47737 0.381293 7.78651 2.40935 6.75886 5.35342C5.71063 4.80225 4.73157 4.07422 3.86609 3.16934C5.87365 1.32045 8.51327 0.1474 11.424 0.0111601V0.0471363ZM3.15903 3.87683C4.14181 4.90069 5.25842 5.71572 6.45425 6.32193C6.02222 7.85486 5.75966 9.5877 5.71444 11.429H0.00581297C0.141996 8.52105 1.31305 5.88366 3.15903 3.87683Z" fill="white"/>
</svg>
