<svg width="23" height="22" viewBox="0 0 23 22" fill="none" xmlns="http://www.w3.org/2000/svg">
<path fill-rule="evenodd" clip-rule="evenodd" d="M15.447 16.1757C15.2492 16.6834 15.024 17.1517 14.7766 17.574C13.9401 19.0021 12.9367 19.7794 11.9595 19.9668V15.4589C13.1448 15.5085 14.3236 15.7475 15.447 16.1757ZM16.3649 16.5742C15.3937 19.0433 13.7955 20.7336 11.9595 20.9804V21.0026C14.678 20.9028 17.1464 19.9362 19.0283 18.4036C18.2148 17.6494 17.3162 17.0396 16.3649 16.5742ZM19.7766 17.7342C18.841 16.8534 17.8 16.1498 16.6959 15.6233C17.0739 14.386 17.3049 12.997 17.3493 11.5238H22.6729C22.5353 13.9106 21.4628 16.0765 19.7766 17.7342ZM15.7703 15.2286C14.5423 14.7647 13.2541 14.5078 11.9595 14.4581V11.5238H16.3488C16.3059 12.8646 16.0994 14.1179 15.7703 15.2286ZM10.9595 14.4608V11.5238H6.63647C6.67938 12.8647 6.88589 14.118 7.21501 15.2287C8.42211 14.7727 9.68726 14.5167 10.9595 14.4608ZM7.53834 16.1758C7.73617 16.6834 7.96129 17.1518 8.20866 17.574C9.02635 18.9699 10.0034 19.7439 10.9595 19.9532V15.4619C9.79664 15.5176 8.64083 15.7556 7.53834 16.1758ZM6.62043 16.5744C7.57993 19.0137 9.15141 20.6927 10.9595 20.9709V21C8.26712 20.8873 5.82339 19.9242 3.95663 18.4043C4.77024 17.6499 5.66904 17.0399 6.62043 16.5744ZM6.28948 15.6235C5.18519 16.1501 4.144 16.8539 3.20833 17.7349C1.52161 16.0771 0.448821 13.911 0.311212 11.5238H5.636C5.68044 12.9971 5.91145 14.3861 6.28948 15.6235ZM6.63505 10.5238H10.9595V7.54027C9.68725 7.4844 8.4221 7.22844 7.215 6.77239C6.88208 7.89592 6.67462 9.16545 6.63505 10.5238ZM7.53832 5.82528C8.64082 6.24555 9.79664 6.48353 10.9595 6.53922V2.04791C10.0034 2.25717 9.02635 3.03118 8.20866 4.42704C7.96128 4.84933 7.73616 5.31767 7.53832 5.82528ZM11.9595 10.5238V7.54301C13.2541 7.49325 14.5423 7.23639 15.7703 6.77244C16.1032 7.89596 16.3107 9.16547 16.3502 10.5238H11.9595ZM11.9595 6.5422C13.1448 6.49252 14.3236 6.25356 15.447 5.82533C15.2492 5.3177 15.024 4.84934 14.7766 4.42704C13.9401 2.99893 12.9367 2.22173 11.9595 2.03431V6.5422ZM17.3506 10.5238C17.3097 9.03333 17.0778 7.62809 16.6959 6.37774C17.8001 5.8511 18.8414 5.1473 19.777 4.26636C21.4742 5.93501 22.5495 8.11843 22.6755 10.5238H17.3506ZM16.3649 5.42681C17.3163 4.96128 18.2152 4.35129 19.0289 3.59685C17.1469 2.06407 14.6783 1.09729 11.9595 0.997437V1.02065C13.7955 1.26751 15.3937 2.95772 16.3649 5.42681ZM10.9595 1.0302C9.1514 1.30834 7.57991 2.98743 6.62041 5.42675C5.66877 4.96111 4.76974 4.35095 3.95596 3.59627C5.8228 2.07606 8.2668 1.11274 10.9595 0.999994V1.0302ZM3.20773 4.26571C4.14355 5.14693 5.18495 5.85092 6.28946 6.37768C5.90746 7.62804 5.67559 9.03331 5.63466 10.5238H0.308594C0.434583 8.11812 1.51016 5.93445 3.20773 4.26571Z" fill="white"/>
</svg>
