<svg width="141" height="40" viewBox="0 0 141 40" fill="none" xmlns="http://www.w3.org/2000/svg">
<g clip-path="url(#clip0)">
<path fill-rule="evenodd" clip-rule="evenodd" d="M121.117 24.5042C115.769 24.5042 113.581 20.4715 113.581 15.9741C113.581 11.3995 115.769 7.36469 121.117 7.36469C126.448 7.36469 128.641 11.3995 128.641 15.9741C128.641 20.4715 126.448 24.5042 121.117 24.5042ZM83.1343 24.5042C77.7884 24.5042 75.6052 20.4715 75.6052 15.9741C75.6052 11.3995 77.7884 7.36469 83.1343 7.36469C88.464 7.36469 90.6575 11.3995 90.6575 15.9741C90.6575 20.4715 88.464 24.5042 83.1343 24.5042ZM46.4782 24.5042C41.1393 24.5042 38.9551 20.4715 38.9551 15.9741C38.9551 11.3995 41.1393 7.36469 46.4782 7.36469C51.8214 7.36469 54.0057 11.3995 54.0057 15.9741C54.0057 20.4715 51.8214 24.5042 46.4782 24.5042ZM121.117 4.24656e-06C111.621 4.24656e-06 104.089 4.3001 102.117 11.8898C100.155 4.3001 92.615 4.24656e-06 83.1343 4.24656e-06C74.5044 4.24656e-06 67.4852 3.54673 64.8063 9.89877C62.1208 3.54673 55.0989 4.24656e-06 46.4782 4.24656e-06C35.4112 4.24656e-06 26.9824 5.84816 26.9824 15.9741C26.9824 18.5142 27.5244 20.7825 28.5122 22.7643C28.3844 22.8284 28.261 22.8801 28.1284 22.9393C27.6261 23.1388 27.0738 23.3258 26.4693 23.4965C24.9455 23.9183 23.2195 24.1585 21.4946 24.1585C16.4754 24.1585 11.9694 21.0048 11.9694 16.1399C11.9694 10.8761 15.8285 7.71746 20.8472 7.71746C22.3894 7.71746 23.7322 7.88216 24.9803 8.22895C24.9803 8.22895 26.2969 4.7143 29.5733 2.06444C29.2613 1.91986 28.9411 1.79049 28.6095 1.65025L28.6079 1.6622C25.9925 0.516382 22.9314 0 19.499 0C8.43151 0 0 5.84816 0 15.9741C0 26.0218 8.43151 31.8809 19.499 31.8809C22.4215 31.8809 25.6805 31.4574 28.4725 30.672C29.5184 30.4149 31.9783 29.5762 33.7733 28.532C37.1437 30.7144 41.5471 31.8809 46.4782 31.8809C55.0989 31.8809 62.1208 28.3216 64.8063 21.9957C67.4852 28.3216 74.5044 31.8809 83.1343 31.8809C91.9426 31.8809 99.0759 28.1634 101.624 21.5788V40H113.522V30.8427C115.845 31.5216 118.401 31.8809 121.117 31.8809C132.184 31.8809 140.615 26.0218 140.615 15.9741C140.615 5.84816 132.184 0 121.117 0" fill="#00234F"/>
</g>
<defs>
<clipPath id="clip0">
<rect width="140.615" height="40" fill="white"/>
</clipPath>
</defs>
</svg>
